<?xml version="1.0"?>
<svg xmlns="http://www.w3.org/2000/svg" viewBox="0 -0.5 658 164" shape-rendering="crispEdges">
<path stroke="#848484" d="M66 96h6M198 96h6M258 96h6M366 96h6M378 96h6M468 96h6M540 96h6M66 97h6M198 97h6M258 97h6M366 97h6M378 97h6M468 97h6M540 97h6M66 98h6M198 98h6M258 98h6M366 98h6M378 98h6M468 98h6M540 98h6M66 99h6M198 99h6M258 99h6M366 99h6M378 99h6M468 99h6M540 99h6M66 100h6M198 100h6M258 100h6M366 100h6M378 100h6M468 100h6M540 100h6M66 101h6M198 101h6M258 101h6M366 101h6M378 101h6M468 101h6M540 101h6M156 102h6M156 103h6M156 104h6M156 105h6M156 106h6M156 107h6M216 108h6M216 109h6M216 110h6M216 111h6M216 112h6M216 113h6M144 120h6M300 120h6M486 120h6M144 121h6M300 121h6M486 121h6M144 122h6M300 122h6M486 122h6M144 123h6M300 123h6M486 123h6M144 124h6M300 124h6M486 124h6M144 125h6M300 125h6M486 125h6M96 126h6M222 126h6M96 127h6M222 127h6M96 128h6M222 128h6M96 129h6M222 129h6M96 130h6M222 130h6M96 131h6M222 131h6M354 132h6M354 133h6M354 134h6M354 135h6M354 136h6M354 137h6M330 138h6M474 138h6M330 139h6M474 139h6M330 140h6M474 140h6M330 141h6M474 141h6M330 142h6M474 142h6M330 143h6M474 143h6M162 144h6M162 145h6M162 146h6M162 147h6M162 148h6M162 149h6" />
<path stroke="#ffffff" d="M72 96h18M102 96h24M132 96h24M168 96h24M204 96h42M264 96h42M312 96h54M384 96h54M444 96h24M510 96h24M546 96h18M72 97h18M102 97h24M132 97h24M168 97h24M204 97h42M264 97h42M312 97h54M384 97h54M444 97h24M510 97h24M546 97h18M72 98h18M102 98h24M132 98h24M168 98h24M204 98h42M264 98h42M312 98h54M384 98h54M444 98h24M510 98h24M546 98h18M72 99h18M102 99h24M132 99h24M168 99h24M204 99h42M264 99h42M312 99h54M384 99h54M444 99h24M510 99h24M546 99h18M72 100h18M102 100h24M132 100h24M168 100h24M204 100h42M264 100h42M312 100h54M384 100h54M444 100h24M510 100h24M546 100h18M72 101h18M102 101h24M132 101h24M168 101h24M204 101h42M264 101h42M312 101h54M384 101h54M444 101h24M510 101h24M546 101h18M66 102h24M102 102h24M132 102h24M168 102h24M198 102h54M258 102h48M312 102h60M378 102h60M444 102h30M504 102h30M540 102h24M66 103h24M102 103h24M132 103h24M168 103h24M198 103h54M258 103h48M312 103h60M378 103h60M444 103h30M504 103h30M540 103h24M66 104h24M102 104h24M132 104h24M168 104h24M198 104h54M258 104h48M312 104h60M378 104h60M444 104h30M504 104h30M540 104h24M66 105h24M102 105h24M132 105h24M168 105h24M198 105h54M258 105h48M312 105h60M378 105h60M444 105h30M504 105h30M540 105h24M66 106h24M102 106h24M132 106h24M168 106h24M198 106h54M258 106h48M312 106h60M378 106h60M444 106h30M504 106h30M540 106h24M66 107h24M102 107h24M132 107h24M168 107h24M198 107h54M258 107h48M312 107h60M378 107h60M444 107h30M504 107h30M540 107h24M66 108h24M102 108h24M132 108h30M168 108h24M198 108h18M222 108h30M258 108h48M312 108h24M342 108h6M354 108h18M378 108h60M444 108h36M498 108h36M540 108h24M66 109h24M102 109h24M132 109h30M168 109h24M198 109h18M222 109h30M258 109h48M312 109h24M342 109h6M354 109h18M378 109h60M444 109h36M498 109h36M540 109h24M66 110h24M102 110h24M132 110h30M168 110h24M198 110h18M222 110h30M258 110h48M312 110h24M342 110h6M354 110h18M378 110h60M444 110h36M498 110h36M540 110h24M66 111h24M102 111h24M132 111h30M168 111h24M198 111h18M222 111h30M258 111h48M312 111h24M342 111h6M354 111h18M378 111h60M444 111h36M498 111h36M540 111h24M66 112h24M102 112h24M132 112h30M168 112h24M198 112h18M222 112h30M258 112h48M312 112h24M342 112h6M354 112h18M378 112h60M444 112h36M498 112h36M540 112h24M66 113h24M102 113h24M132 113h30M168 113h24M198 113h18M222 113h30M258 113h48M312 113h24M342 113h6M354 113h18M378 113h60M444 113h36M498 113h36M540 113h24M66 114h24M102 114h24M132 114h30M168 114h24M198 114h18M228 114h24M258 114h24M312 114h24M354 114h18M378 114h60M444 114h42M492 114h42M540 114h24M66 115h24M102 115h24M132 115h30M168 115h24M198 115h18M228 115h24M258 115h24M312 115h24M354 115h18M378 115h60M444 115h42M492 115h42M540 115h24M66 116h24M102 116h24M132 116h30M168 116h24M198 116h18M228 116h24M258 116h24M312 116h24M354 116h18M378 116h60M444 116h42M492 116h42M540 116h24M66 117h24M102 117h24M132 117h30M168 117h24M198 117h18M228 117h24M258 117h24M312 117h24M354 117h18M378 117h60M444 117h42M492 117h42M540 117h24M66 118h24M102 118h24M132 118h30M168 118h24M198 118h18M228 118h24M258 118h24M312 118h24M354 118h18M378 118h60M444 118h42M492 118h42M540 118h24M66 119h24M102 119h24M132 119h30M168 119h24M198 119h18M228 119h24M258 119h24M312 119h24M354 119h18M378 119h60M444 119h42M492 119h42M540 119h24M66 120h24M102 120h24M132 120h12M150 120h42M198 120h18M228 120h24M258 120h42M312 120h30M348 120h24M396 120h24M444 120h42M492 120h42M540 120h24M66 121h24M102 121h24M132 121h12M150 121h42M198 121h18M228 121h24M258 121h42M312 121h30M348 121h24M396 121h24M444 121h42M492 121h42M540 121h24M66 122h24M102 122h24M132 122h12M150 122h42M198 122h18M228 122h24M258 122h42M312 122h30M348 122h24M396 122h24M444 122h42M492 122h42M540 122h24M66 123h24M102 123h24M132 123h12M150 123h42M198 123h18M228 123h24M258 123h42M312 123h30M348 123h24M396 123h24M444 123h42M492 123h42M540 123h24M66 124h24M102 124h24M132 124h12M150 124h42M198 124h18M228 124h24M258 124h42M312 124h30M348 124h24M396 124h24M444 124h42M492 124h42M540 124h24M66 125h24M102 125h24M132 125h12M150 125h42M198 125h18M228 125h24M258 125h42M312 125h30M348 125h24M396 125h24M444 125h42M492 125h42M540 125h24M66 126h24M102 126h24M132 126h12M150 126h42M198 126h18M228 126h24M258 126h24M312 126h60M396 126h24M444 126h24M474 126h30M510 126h24M540 126h24M66 127h24M102 127h24M132 127h12M150 127h42M198 127h18M228 127h24M258 127h24M312 127h60M396 127h24M444 127h24M474 127h30M510 127h24M540 127h24M66 128h24M102 128h24M132 128h12M150 128h42M198 128h18M228 128h24M258 128h24M312 128h60M396 128h24M444 128h24M474 128h30M510 128h24M540 128h24M66 129h24M102 129h24M132 129h12M150 129h42M198 129h18M228 129h24M258 129h24M312 129h60M396 129h24M444 129h24M474 129h30M510 129h24M540 129h24M66 130h24M102 130h24M132 130h12M150 130h42M198 130h18M228 130h24M258 130h24M312 130h60M396 130h24M444 130h24M474 130h30M510 130h24M540 130h24M66 131h24M102 131h24M132 131h12M150 131h42M198 131h18M228 131h24M258 131h24M312 131h60M396 131h24M444 131h24M474 131h30M510 131h24M540 131h24M66 132h60M132 132h12M156 132h36M198 132h18M222 132h30M258 132h48M312 132h42M396 132h24M444 132h24M474 132h30M510 132h24M540 132h48M66 133h60M132 133h12M156 133h36M198 133h18M222 133h30M258 133h48M312 133h42M396 133h24M444 133h24M474 133h30M510 133h24M540 133h48M66 134h60M132 134h12M156 134h36M198 134h18M222 134h30M258 134h48M312 134h42M396 134h24M444 134h24M474 134h30M510 134h24M540 134h48M66 135h60M132 135h12M156 135h36M198 135h18M222 135h30M258 135h48M312 135h42M396 135h24M444 135h24M474 135h30M510 135h24M540 135h48M66 136h60M132 136h12M156 136h36M198 136h18M222 136h30M258 136h48M312 136h42M396 136h24M444 136h24M474 136h30M510 136h24M540 136h48M66 137h60M132 137h12M156 137h36M198 137h18M222 137h30M258 137h48M312 137h42M396 137h24M444 137h24M474 137h30M510 137h24M540 137h48M66 138h60M132 138h12M162 138h30M198 138h54M258 138h48M312 138h18M336 138h36M396 138h24M444 138h24M480 138h18M510 138h24M540 138h48M66 139h60M132 139h12M162 139h30M198 139h54M258 139h48M312 139h18M336 139h36M396 139h24M444 139h24M480 139h18M510 139h24M540 139h48M66 140h60M132 140h12M162 140h30M198 140h54M258 140h48M312 140h18M336 140h36M396 140h24M444 140h24M480 140h18M510 140h24M540 140h48M66 141h60M132 141h12M162 141h30M198 141h54M258 141h48M312 141h18M336 141h36M396 141h24M444 141h24M480 141h18M510 141h24M540 141h48M66 142h60M132 142h12M162 142h30M198 142h54M258 142h48M312 142h18M336 142h36M396 142h24M444 142h24M480 142h18M510 142h24M540 142h48M66 143h60M132 143h12M162 143h30M198 143h54M258 143h48M312 143h18M336 143h36M396 143h24M444 143h24M480 143h18M510 143h24M540 143h48M66 144h60M132 144h12M168 144h24M198 144h48M258 144h48M312 144h18M348 144h24M396 144h24M444 144h24M480 144h18M510 144h24M540 144h48M66 145h60M132 145h12M168 145h24M198 145h48M258 145h48M312 145h18M348 145h24M396 145h24M444 145h24M480 145h18M510 145h24M540 145h48M66 146h60M132 146h12M168 146h24M198 146h48M258 146h48M312 146h18M348 146h24M396 146h24M444 146h24M480 146h18M510 146h24M540 146h48M66 147h60M132 147h12M168 147h24M198 147h48M258 147h48M312 147h18M348 147h24M396 147h24M444 147h24M480 147h18M510 147h24M540 147h48M66 148h60M132 148h12M168 148h24M198 148h48M258 148h48M312 148h18M348 148h24M396 148h24M444 148h24M480 148h18M510 148h24M540 148h48M66 149h60M132 149h12M168 149h24M198 149h48M258 149h48M312 149h18M348 149h24M396 149h24M444 149h24M480 149h18M510 149h24M540 149h48" />
<path stroke="#003cff" d="M336 108h6M348 108h6M336 109h6M348 109h6M336 110h6M348 110h6M336 111h6M348 111h6M336 112h6M348 112h6M336 113h6M348 113h6M336 114h18M336 115h18M336 116h18M336 117h18M336 118h18M336 119h18M342 120h6M342 121h6M342 122h6M342 123h6M342 124h6M342 125h6" />
</svg>
